<svg width="50" height="50" viewBox="0 0 50 50" fill="none" xmlns="http://www.w3.org/2000/svg">
<g clip-path="url(#clip0_590_195)">
<path d="M29.8752 9.77909C27.1416 6.21708 21.9325 10.0036 21.9325 10.0036C21.9325 10.0036 21.7392 12.9155 23.0779 14.2647C27.9635 19.0931 37.0829 13.9758 37.0829 13.9758C37.0829 13.9758 32.5587 13.3146 29.8752 9.77909Z" fill="#495E57"/>
<path d="M19.3786 6.34424C19.1781 6.23822 18.7305 6.96343 18.9309 7.06944C21.7672 9.46725 21.8245 12.5117 21.6862 13.0157C21.5185 13.6966 22.7651 13.5222 22.862 12.6115C22.8147 12.4582 22.5242 8.52087 19.3786 6.34424Z" fill="#947151"/>
<path d="M30.6092 44.2849C30.68 44.5147 31.2019 44.9831 31.6616 44.8415C32.1213 44.6998 32.3155 43.9688 32.2446 43.7389C32.1738 43.5091 31.7435 43.4739 31.3339 43.6421C30.8477 43.8339 30.562 44.1317 30.6092 44.2849Z" fill="#64892F"/>
<path d="M20.5697 14.1569C20.5047 13.6736 21.2294 13.0308 22.3285 12.6501C23.4012 12.3196 24.3885 12.3928 24.6068 12.8289C30.2476 12.349 35.9996 16.9943 38.0923 24.1934C39.9489 30.6264 38.3543 37.1582 34.4213 40.5934C34.6665 42.0698 33.4618 43.7414 31.5199 44.3818C29.578 45.0222 27.665 44.3953 27.1132 43.0132C22.0791 42.4672 17.2851 38.0721 15.4285 31.6391C13.3623 24.3898 15.6079 17.1122 20.5697 14.1569Z" fill="#F4CE14"/>
<path d="M22.0664 13.0244C22.4278 10.5221 19.9568 7.67611 19.9568 7.67611C19.9568 7.67611 11.7607 7.8948 11.6277 13.7245C11.471 19.4775 7.34086 23.7704 7.34086 23.7704C7.34086 23.7704 20.6732 21.8431 22.0664 13.0244Z" fill="#495E57"/>
<path d="M19.9568 7.67619C19.1878 8.03903 18.4423 8.47849 17.7706 9.02107C17.0988 9.56365 16.4743 10.2595 15.95 11.0083C14.9015 12.5059 14.2803 14.1655 13.559 15.772C12.9142 17.355 12.0926 18.9085 11.0469 20.2794C10.0013 21.6503 8.68141 22.8121 7.31434 23.8206C8.03329 23.4313 8.75514 22.9152 9.47698 22.3991C10.1487 21.8566 10.7968 21.2374 11.3948 20.5917C12.5937 19.1735 13.4418 17.5699 14.1131 15.9368C14.7844 14.3038 15.4055 12.6442 16.351 11.2203C17.2463 9.76989 18.5661 8.60811 19.9568 7.67619Z" fill="#F4CE14"/>
</g>
<defs>
<clipPath id="clip0_590_195">
<rect width="36.2822" height="36.2822" fill="white" transform="translate(16.9621) rotate(27.8725)"/>
</clipPath>
</defs>
</svg>
