<svg width="44" height="28" viewBox="0 0 44 28" fill="none" xmlns="http://www.w3.org/2000/svg">
<path d="M37.4 3.88204C37.4 1.74692 35.42 0 33 0H26.4V3.88204H33V9.02575L25.344 17.4692H17.6V7.76408H8.8C3.938 7.76408 0 11.2385 0 15.5282V21.3512H4.4C4.4 24.5733 7.348 27.1743 11 27.1743C14.652 27.1743 17.6 24.5733 17.6 21.3512H27.456L37.4 10.3845V3.88204ZM11 23.2922C9.79 23.2922 8.8 22.4188 8.8 21.3512H13.2C13.2 22.4188 12.21 23.2922 11 23.2922Z" fill="#48742C"/>
<path d="M17.6001 1.94043H6.60004V5.82243H17.6001V1.94043Z" fill="#48742C"/>
<path d="M37.4 15.5278C33.748 15.5278 30.8 18.1288 30.8 21.3509C30.8 24.5729 33.748 27.1739 37.4 27.1739C41.052 27.1739 44 24.5729 44 21.3509C44 18.1288 41.052 15.5278 37.4 15.5278ZM37.4 23.2919C36.19 23.2919 35.2 22.4184 35.2 21.3509C35.2 20.2833 36.19 19.4099 37.4 19.4099C38.61 19.4099 39.6 20.2833 39.6 21.3509C39.6 22.4184 38.61 23.2919 37.4 23.2919Z" fill="#48742C"/>
</svg>
